# xmcd
#
# Track frame offsets:
#      150
#      23932
#      45062
#      67805
#      88849
#      105043
#      122859
#      140338
#      171612
#      184649
# 
# Disc length: 2780 seconds
#
# Revision: 2
# Processed by: cddbd v1.4PL0 Copyright (c) Steve Scherf et al.
#
# Submitted via: FreeRIP 1.20
#
DISCID=790ada0a
DTITLE=Metalish - Metalish1
DYEAR=1900
DGENRE=Heavy Metal
TTITLE0=V'zakainu
TTITLE1=Dani's Nigun
TTITLE2=Chupa
TTITLE3=Freilach
TTITLE4=Od Yishoma
TTITLE5=Ashreinu
TTITLE6=Nigun
TTITLE7=Hora
TTITLE8=Urai Vonim
TTITLE9=Ani Mamin
EXTD=
EXTT0=
EXTT1=
EXTT2=
EXTT3=
EXTT4=
EXTT5=
EXTT6=
EXTT7=
EXTT8=
EXTT9=
PLAYORDER=
